M48
;Layer_Color=9474304
;FILE_FORMAT=4:4
METRIC,LZ
;TYPE=PLATED
T1F00S00C0.7000
T2F00S00C0.7500
T3F00S00C0.9000
T4F00S00C1.0000
T5F00S00C1.0200
T6F00S00C1.1000
T7F00S00C1.2000
T8F00S00C1.2900
T9F00S00C1.3200
;TYPE=NON_PLATED
T10F00S00C3.2000
%
T01
X0096393Y0100584
Y0103124
X0106807Y0102997
Y0105537
T02
X008644Y0035179
Y0039243
X009644
Y0035179
X0100203Y009525
X0090203
T03
X0090043Y0099889
Y0102489
Y0105089
T04
X0100965Y0100584
Y0103124
Y0105664
T05
X0103862Y0047265
Y0049805
Y0052345
Y0054885
Y0057425
X0103886Y0059944
X0103862Y0062505
Y0065045
Y0067585
Y0070125
Y0072665
Y0075205
Y0077745
X0078462
Y0075205
Y0072665
Y0070125
Y0067585
Y0065045
Y0062505
Y0059965
Y0057425
Y0054885
Y0052345
Y0049805
Y0047265
Y0080285
Y0082825
X0103862
Y0080285
T06
X0069318Y0040259
Y0042799
Y0045339
Y0048641
Y0051181
Y0054483
Y0057023
Y0059563
Y0063246
Y0065786
Y0068326
Y0071628
Y0074168
Y0076708
Y0079248
X0069342Y0083439
Y0085979
Y0088519
T07
X0112522Y0038283
Y0041783
X0112676Y0047399
Y0050899
X0112776Y0057079
Y0060579
Y0065814
Y0069314
Y0074803
Y0078303
X0061949Y0103406
Y0106906
X0113565Y0105636
Y0102136
X0112776Y0087094
Y0083594
T08
X0083665Y0105029
T09
X0069465Y0099029
Y0111029
X0081665
Y0099029
T10
X0061722Y0032004
X0113919
X0061722Y0113665
X0113919
M30
