%TF.GenerationSoftware,Altium Limited,Altium Designer,22.5.1 (42)*%
G04 Layer_Color=32768*
%FSLAX45Y45*%
%MOMM*%
%TF.SameCoordinates,0F5D3445-5268-4BF5-932C-448DE224A770*%
%TF.FilePolarity,Positive*%
%TF.FileFunction,Other,Mechanical_15*%
%TF.Part,Single*%
G01*
G75*
%TA.AperFunction,NonConductor*%
%ADD50C,0.10000*%
%ADD56C,0.05000*%
D50*
X10046503Y10312400D02*
X10146502D01*
X10096500Y10262398D02*
Y10362397D01*
X8954303Y10248900D02*
X9054302D01*
X9004300Y10198898D02*
Y10298902D01*
D56*
X6134898Y10515600D02*
X6234897D01*
X6184900Y10465603D02*
Y10565602D01*
X5814898Y10935599D02*
X6554902D01*
X5814898Y10095601D02*
Y10935599D01*
Y10095601D02*
X6554902D01*
Y10935599D01*
X8536498Y9702902D02*
Y11302898D01*
X6576502Y9702902D02*
X8536498D01*
X6576502D02*
Y11302898D01*
X8536498D01*
X10996502Y9968600D02*
Y10808598D01*
X11736500D01*
Y9968600D02*
Y10808598D01*
X10996502Y9968600D02*
X11736500D01*
X11366498Y10338602D02*
Y10438601D01*
X11316501Y10388599D02*
X11416501D01*
X9867499Y9777400D02*
Y10847400D01*
X10387498Y9777400D02*
Y10847400D01*
X9867499D02*
X10387498D01*
X9867499Y9777400D02*
X10387498D01*
X6654800Y4941100D02*
Y5041100D01*
X6604800Y4991100D02*
X6704800D01*
X7034300Y4702100D02*
Y5280100D01*
X5907800Y4702100D02*
X7034300D01*
X5907800D02*
Y5280100D01*
X7034300D01*
X6657200Y8547900D02*
Y8647900D01*
X6607200Y8597900D02*
X6707200D01*
X7036700Y8181900D02*
Y9013900D01*
X5910200Y8181900D02*
X7036700D01*
X5910200D02*
Y9013900D01*
X7036700D01*
X6654800Y4229900D02*
Y4329900D01*
X6604800Y4279900D02*
X6704800D01*
X7034300Y3863900D02*
Y4695900D01*
X5907800Y3863900D02*
X7034300D01*
X5907800D02*
Y4695900D01*
X7034300D01*
X6654800Y6528600D02*
Y6628600D01*
X6604800Y6578600D02*
X6704800D01*
X7034300Y6162600D02*
Y6994600D01*
X5907800Y6162600D02*
X7034300D01*
X5907800D02*
Y6994600D01*
X7034300D01*
X6654800Y5652300D02*
Y5752300D01*
X6604800Y5702300D02*
X6704800D01*
X7034300Y5286300D02*
Y6118300D01*
X5907800Y5286300D02*
X7034300D01*
X5907800D02*
Y6118300D01*
X7034300D01*
X6654800Y7493800D02*
Y7593800D01*
X6604800Y7543800D02*
X6704800D01*
X5907800Y8086800D02*
X7034300D01*
X5907800Y7000800D02*
Y8086800D01*
Y7000800D02*
X7034300D01*
Y8086800D01*
X7663200Y4158498D02*
Y9303502D01*
Y4158498D02*
X10564200D01*
Y9303502D01*
X7663200D02*
X10564200D01*
X9147800Y9908901D02*
Y10588899D01*
X8759302Y9908901D02*
X9147800D01*
X8759302D02*
Y10588899D01*
X9147800D01*
X10892201Y3583300D02*
Y4423298D01*
X11632199D01*
Y3583300D02*
Y4423298D01*
X10892201Y3583300D02*
X11632199D01*
X11262197Y3953297D02*
Y4053296D01*
X11212200Y4003299D02*
X11312200D01*
X10907598Y4494901D02*
Y5334899D01*
X11647602D01*
Y4494901D02*
Y5334899D01*
X10907598Y4494901D02*
X11647602D01*
X11277600Y4864903D02*
Y4964902D01*
X11227603Y4914900D02*
X11327602D01*
X10917601Y7235302D02*
Y8075300D01*
X11657599D01*
Y7235302D02*
Y8075300D01*
X10917601Y7235302D02*
X11657599D01*
X11287597Y7605298D02*
Y7705298D01*
X11237600Y7655301D02*
X11337600D01*
X10917601Y8114401D02*
Y8954399D01*
X11657599D01*
Y8114401D02*
Y8954399D01*
X10917601Y8114401D02*
X11657599D01*
X11287597Y8484403D02*
Y8584402D01*
X11237600Y8534400D02*
X11337600D01*
X10917601Y6336401D02*
Y7176399D01*
X11657599D01*
Y6336401D02*
Y7176399D01*
X10917601Y6336401D02*
X11657599D01*
X11287597Y6706403D02*
Y6806402D01*
X11237600Y6756400D02*
X11337600D01*
X10917601Y5462900D02*
Y6302898D01*
X11657599D01*
Y5462900D02*
Y6302898D01*
X10917601Y5462900D02*
X11657599D01*
X11287597Y5832902D02*
Y5932902D01*
X11237600Y5882899D02*
X11337600D01*
%TF.MD5,2aae93bbd631f923ec597a812635c991*%
M02*
