%TF.GenerationSoftware,Altium Limited,Altium Designer,22.5.1 (42)*%
G04 Layer_Physical_Order=2*
G04 Layer_Color=16711680*
%FSLAX45Y45*%
%MOMM*%
%TF.SameCoordinates,0F5D3445-5268-4BF5-932C-448DE224A770*%
%TF.FilePolarity,Positive*%
%TF.FileFunction,Copper,L2,Bot,Signal*%
%TF.Part,Single*%
G01*
G75*
%TA.AperFunction,WasherPad*%
%ADD10C,3.00000*%
%TA.AperFunction,ComponentPad*%
%ADD11C,1.80000*%
%ADD12R,1.80000X1.80000*%
%ADD13R,1.25000X1.25000*%
%ADD14C,1.25000*%
%ADD15R,1.98000X1.98000*%
%ADD16C,1.93500*%
%ADD17C,1.98000*%
%TA.AperFunction,ViaPad*%
%ADD18C,2.00000*%
%TA.AperFunction,ComponentPad*%
%ADD19C,2.00000*%
%ADD20R,1.20000X1.20000*%
%ADD21C,1.20000*%
%ADD22R,1.60000X1.60000*%
%ADD23C,1.60000*%
%ADD24R,1.65000X1.65000*%
%ADD25C,1.65000*%
%ADD26R,2.00000X2.00000*%
%ADD27C,1.40000*%
%ADD28R,1.40000X1.40000*%
%TA.AperFunction,Conductor*%
%ADD29C,1.50000*%
G36*
X11836400Y2819401D02*
X11836399Y2819400D01*
X5740400D01*
X5740399Y11747500D01*
X11836400D01*
Y2819401D01*
D02*
G37*
%LPC*%
G36*
X11412583Y11576500D02*
X11371217D01*
X11330645Y11568429D01*
X11292428Y11552599D01*
X11258033Y11529618D01*
X11228782Y11500367D01*
X11205801Y11465972D01*
X11189971Y11427755D01*
X11181900Y11387183D01*
Y11345817D01*
X11189971Y11305245D01*
X11205801Y11267028D01*
X11228782Y11232633D01*
X11258033Y11203382D01*
X11292428Y11180401D01*
X11330645Y11164571D01*
X11371217Y11156500D01*
X11412583D01*
X11453155Y11164571D01*
X11491372Y11180401D01*
X11525767Y11203382D01*
X11555018Y11232633D01*
X11577999Y11267028D01*
X11593829Y11305245D01*
X11601900Y11345817D01*
Y11387183D01*
X11593829Y11427755D01*
X11577999Y11465972D01*
X11555018Y11500367D01*
X11525767Y11529618D01*
X11491372Y11552599D01*
X11453155Y11568429D01*
X11412583Y11576500D01*
D02*
G37*
G36*
X6192883D02*
X6151517D01*
X6110945Y11568429D01*
X6072728Y11552599D01*
X6038333Y11529618D01*
X6009082Y11500367D01*
X5986101Y11465972D01*
X5970271Y11427755D01*
X5962200Y11387183D01*
Y11345817D01*
X5970271Y11305245D01*
X5986101Y11267028D01*
X6009082Y11232633D01*
X6038333Y11203382D01*
X6072728Y11180401D01*
X6110945Y11164571D01*
X6151517Y11156500D01*
X6192883D01*
X6233455Y11164571D01*
X6271672Y11180401D01*
X6306067Y11203382D01*
X6335318Y11232633D01*
X6358299Y11267028D01*
X6374129Y11305245D01*
X6382200Y11345817D01*
Y11387183D01*
X6374129Y11427755D01*
X6358299Y11465972D01*
X6335318Y11500367D01*
X6306067Y11529618D01*
X6271672Y11552599D01*
X6233455Y11568429D01*
X6192883Y11576500D01*
D02*
G37*
G36*
X6961174Y11251899D02*
X6931824D01*
X6903037Y11246173D01*
X6875921Y11234941D01*
X6851517Y11218635D01*
X6830763Y11197881D01*
X6814457Y11173477D01*
X6803225Y11146360D01*
X6801131Y11135833D01*
X6481977Y10816679D01*
X6334897D01*
Y10830601D01*
X6054898D01*
Y10550601D01*
X6334897D01*
Y10564522D01*
X6534201D01*
X6566832Y10568818D01*
X6597240Y10581414D01*
X6623352Y10601450D01*
X6979433Y10957531D01*
X6989960Y10959625D01*
X7017077Y10970857D01*
X7041480Y10987163D01*
X7062235Y11007917D01*
X7078541Y11032321D01*
X7089772Y11059437D01*
X7095499Y11088224D01*
Y11117574D01*
X7089772Y11146360D01*
X7078541Y11173477D01*
X7062235Y11197881D01*
X7041480Y11218635D01*
X7017077Y11234941D01*
X6989960Y11246173D01*
X6961174Y11251899D01*
D02*
G37*
G36*
X8385821Y10649650D02*
X8347181D01*
X8309858Y10639649D01*
X8291376Y10628978D01*
X7360023D01*
X7327391Y10624683D01*
X7296984Y10612087D01*
X7270872Y10592051D01*
X7145499Y10466678D01*
X6256522D01*
X6248935Y10471058D01*
X6213329Y10480599D01*
X6176466D01*
X6140860Y10471058D01*
X6108936Y10452627D01*
X6082870Y10426561D01*
X6064438Y10394637D01*
X6054898Y10359030D01*
Y10322168D01*
X6064438Y10286561D01*
X6082870Y10254637D01*
X6108936Y10228571D01*
X6140860Y10210140D01*
X6176466Y10200599D01*
X6213329D01*
X6248935Y10210140D01*
X6256522Y10214521D01*
X7197722D01*
X7230354Y10218816D01*
X7260761Y10231412D01*
X7286873Y10251448D01*
X7412246Y10376822D01*
X8291376D01*
X8309858Y10366151D01*
X8347181Y10356150D01*
X8385821D01*
X8423144Y10366151D01*
X8456607Y10385471D01*
X8483930Y10412793D01*
X8503250Y10446257D01*
X8513251Y10483580D01*
Y10522220D01*
X8503250Y10559543D01*
X8483930Y10593006D01*
X8456607Y10620329D01*
X8423144Y10639649D01*
X8385821Y10649650D01*
D02*
G37*
G36*
X8181176Y11251899D02*
X8151826D01*
X8123040Y11246173D01*
X8095923Y11234941D01*
X8071520Y11218635D01*
X8050765Y11197881D01*
X8034459Y11173477D01*
X8023228Y11146360D01*
X8017501Y11117574D01*
Y11088224D01*
X8023228Y11059437D01*
X8034459Y11032321D01*
X8050765Y11007917D01*
X8071520Y10987163D01*
X8095923Y10970857D01*
X8123040Y10959625D01*
X8151826Y10953899D01*
X8181176D01*
X8209963Y10959625D01*
X8237079Y10970857D01*
X8246004Y10976820D01*
X9164878D01*
X9664449Y10477249D01*
X9690561Y10457213D01*
X9720968Y10444617D01*
X9753600Y10440322D01*
X9966500D01*
Y10436400D01*
X10226500D01*
Y10440322D01*
X10668000D01*
X10668665Y10440409D01*
X10690600Y10437521D01*
X11294876D01*
X11302463Y10433141D01*
X11338070Y10423600D01*
X11374932D01*
X11410539Y10433141D01*
X11442463Y10451572D01*
X11468528Y10477638D01*
X11486960Y10509562D01*
X11496501Y10545169D01*
Y10582031D01*
X11486960Y10617638D01*
X11468528Y10649562D01*
X11442463Y10675628D01*
X11410539Y10694059D01*
X11374932Y10703600D01*
X11338070D01*
X11302463Y10694059D01*
X11294876Y10689678D01*
X10690600D01*
X10689935Y10689591D01*
X10668000Y10692478D01*
X10226500D01*
Y10696400D01*
X9966500D01*
Y10692478D01*
X9805823D01*
X9306252Y11192050D01*
X9280140Y11212086D01*
X9249733Y11224681D01*
X9217101Y11228977D01*
X8246004D01*
X8237079Y11234941D01*
X8209963Y11246173D01*
X8181176Y11251899D01*
D02*
G37*
G36*
X9164032Y10393047D02*
X9022368D01*
X8989736Y10388751D01*
X8959329Y10376156D01*
X8933217Y10356119D01*
X8915149Y10338051D01*
X8895113Y10311939D01*
X8882517Y10281532D01*
X8878222Y10248900D01*
X8882517Y10216268D01*
X8895113Y10185861D01*
X8915149Y10159749D01*
X8941261Y10139713D01*
X8971668Y10127117D01*
X8985435Y10125305D01*
Y10112495D01*
X8971668Y10110683D01*
X8967365Y10108900D01*
X8884300D01*
Y10047203D01*
X8866077Y10028980D01*
X8315501D01*
Y10051901D01*
X8017501D01*
Y9753901D01*
X8315501D01*
Y9776823D01*
X8918301D01*
X8950932Y9781119D01*
X8981340Y9793714D01*
X9007452Y9813750D01*
X9062602Y9868901D01*
X9119521D01*
X9124300Y9868901D01*
X9132222Y9859482D01*
Y9797843D01*
X9004603Y9670224D01*
X8985304Y9662231D01*
X8959192Y9642194D01*
X8931149Y9614151D01*
X8911113Y9588039D01*
X8898517Y9557632D01*
X8894221Y9525000D01*
X8898517Y9492368D01*
X8911113Y9461961D01*
X8931149Y9435849D01*
X8957261Y9415813D01*
X8987668Y9403217D01*
X9020300Y9398922D01*
X9052932Y9403217D01*
X9083339Y9415813D01*
X9109451Y9435849D01*
X9109464Y9435862D01*
X9128763Y9443856D01*
X9154874Y9463892D01*
X9347451Y9656469D01*
X9367487Y9682581D01*
X9373522Y9697148D01*
X9386222Y9694622D01*
Y9501023D01*
X8860538Y8975340D01*
X8071840D01*
X8051800Y8977978D01*
X6975609D01*
X6951644Y8984400D01*
X6916756D01*
X6883057Y8975370D01*
X6852843Y8957926D01*
X6828174Y8933257D01*
X6810730Y8903043D01*
X6801700Y8869344D01*
Y8834456D01*
X6810730Y8800757D01*
X6828174Y8770543D01*
X6852843Y8745874D01*
X6876471Y8732232D01*
Y8717568D01*
X6852843Y8703926D01*
X6828174Y8679257D01*
X6810730Y8649043D01*
X6801700Y8615344D01*
Y8580456D01*
X6810730Y8546757D01*
X6828174Y8516543D01*
X6852843Y8491874D01*
X6883057Y8474430D01*
X6916756Y8465400D01*
X6951644D01*
X6975609Y8471822D01*
X7803076D01*
X7835708Y8476117D01*
X7866116Y8488713D01*
X7892227Y8508749D01*
X8106661Y8723183D01*
X8912762D01*
X8945393Y8727479D01*
X8975801Y8740074D01*
X9001913Y8760111D01*
X9601451Y9359649D01*
X9621487Y9385761D01*
X9634083Y9416168D01*
X9638378Y9448800D01*
Y9879177D01*
X9691523Y9932322D01*
X10044277D01*
X10260124Y9716474D01*
Y9593551D01*
X10263222Y9570020D01*
Y9373680D01*
X10260124Y9350149D01*
Y8363801D01*
X10253274Y8353550D01*
X10241967Y8326251D01*
X10236202Y8297272D01*
Y8267724D01*
X10241967Y8238745D01*
X10253274Y8211446D01*
X10269690Y8186879D01*
X10290583Y8165985D01*
X10315151Y8149570D01*
X10342449Y8138263D01*
X10371429Y8132498D01*
X10400976D01*
X10429956Y8138263D01*
X10457254Y8149570D01*
X10481822Y8165985D01*
X10502715Y8186879D01*
X10519130Y8211446D01*
X10530438Y8238745D01*
X10536202Y8267724D01*
Y8297272D01*
X10530438Y8326251D01*
X10519130Y8353550D01*
X10512281Y8363801D01*
Y9329716D01*
X10515379Y9353247D01*
Y9590453D01*
X10512281Y9613984D01*
Y9768698D01*
X10507985Y9801329D01*
X10495389Y9831737D01*
X10475353Y9857849D01*
X10208101Y10125101D01*
X10200526Y10138222D01*
X10176322Y10162426D01*
X10146678Y10179540D01*
X10113615Y10188400D01*
X10079385D01*
X10064751Y10184478D01*
X9639300D01*
X9606668Y10180183D01*
X9576261Y10167587D01*
X9550149Y10147551D01*
X9423149Y10020551D01*
X9403113Y9994439D01*
X9397078Y9979872D01*
X9384378Y9982398D01*
Y10172700D01*
X9380083Y10205332D01*
X9367487Y10235739D01*
X9347451Y10261851D01*
X9253183Y10356119D01*
X9227071Y10376155D01*
X9196664Y10388751D01*
X9164032Y10393047D01*
D02*
G37*
G36*
X6961174Y10051901D02*
X6931824D01*
X6903037Y10046175D01*
X6875921Y10034943D01*
X6851517Y10018637D01*
X6830763Y9997883D01*
X6814457Y9973479D01*
X6803225Y9946363D01*
X6797499Y9917576D01*
Y9888226D01*
X6803225Y9859440D01*
X6814457Y9832323D01*
X6830763Y9807919D01*
X6851517Y9787165D01*
X6875921Y9770859D01*
X6903037Y9759627D01*
X6931824Y9753901D01*
X6961174D01*
X6989960Y9759627D01*
X7017077Y9770859D01*
X7041480Y9787165D01*
X7062235Y9807919D01*
X7078541Y9832323D01*
X7089772Y9859440D01*
X7095499Y9888226D01*
Y9917576D01*
X7089772Y9946363D01*
X7078541Y9973479D01*
X7062235Y9997883D01*
X7041480Y10018637D01*
X7017077Y10034943D01*
X6989960Y10046175D01*
X6961174Y10051901D01*
D02*
G37*
G36*
X7996202Y8432498D02*
X7696202D01*
Y8132498D01*
X7996202D01*
Y8432498D01*
D02*
G37*
G36*
X10020300Y9651078D02*
X9987668Y9646783D01*
X9965258Y9637500D01*
X9907800D01*
Y9580043D01*
X9898517Y9557631D01*
X9894221Y9524999D01*
Y9334500D01*
X9894222Y6516847D01*
X9898517Y6484215D01*
X9911113Y6453808D01*
X9931149Y6427696D01*
X10193498Y6165347D01*
X10219610Y6145311D01*
X10250017Y6132715D01*
X10282649Y6128420D01*
X10296322D01*
X10299544Y6122247D01*
Y6115298D01*
X10292981Y6110913D01*
X10272087Y6090019D01*
X10255672Y6065452D01*
X10244365Y6038153D01*
X10238600Y6009174D01*
Y5979626D01*
X10244365Y5950647D01*
X10255672Y5923348D01*
X10272087Y5898781D01*
X10289592Y5881277D01*
X10284799Y5868577D01*
X9643445D01*
X9610813Y5864281D01*
X9580406Y5851686D01*
X9554294Y5831649D01*
X8304850Y4582205D01*
X8284814Y4556094D01*
X8272218Y4525686D01*
X8267923Y4493054D01*
Y3767900D01*
X8272218Y3735268D01*
X8284814Y3704861D01*
X8304850Y3678749D01*
X8531501Y3452098D01*
Y3405400D01*
X8588959D01*
X8611370Y3396117D01*
X8644001Y3391822D01*
X8676633Y3396117D01*
X8699043Y3405400D01*
X8756501D01*
Y3462858D01*
X8765784Y3485268D01*
X8770079Y3517900D01*
X8765784Y3550531D01*
X8756501Y3572942D01*
Y3630400D01*
X8709803D01*
X8541103Y3799100D01*
X8546363Y3811800D01*
X8588959D01*
X8611369Y3802517D01*
X8644001Y3798222D01*
X8676633Y3802517D01*
X8699043Y3811800D01*
X8756501D01*
Y3869258D01*
X8765784Y3891668D01*
X8770079Y3924300D01*
Y4337278D01*
X9785655Y5352853D01*
X10274464D01*
X10279725Y5340153D01*
X10269690Y5330117D01*
X10253274Y5305550D01*
X10241967Y5278251D01*
X10236202Y5249272D01*
Y5219724D01*
X10241967Y5190745D01*
X10253274Y5163446D01*
X10269690Y5138879D01*
X10290583Y5117985D01*
X10296775Y5113848D01*
Y5101148D01*
X10290583Y5097011D01*
X10269690Y5076117D01*
X10253274Y5051550D01*
X10241967Y5024251D01*
X10236202Y4995272D01*
Y4965724D01*
X10241967Y4936745D01*
X10253274Y4909446D01*
X10269690Y4884879D01*
X10290583Y4863985D01*
X10296775Y4859848D01*
Y4847148D01*
X10290583Y4843011D01*
X10269690Y4822117D01*
X10253274Y4797550D01*
X10241967Y4770251D01*
X10236202Y4741272D01*
Y4711724D01*
X10241967Y4682745D01*
X10253274Y4655446D01*
X10269690Y4630879D01*
X10290583Y4609985D01*
X10315151Y4593570D01*
X10342449Y4582263D01*
X10371429Y4576498D01*
X10400976D01*
X10429956Y4582263D01*
X10457254Y4593570D01*
X10481822Y4609985D01*
X10502715Y4630879D01*
X10519130Y4655446D01*
X10530438Y4682745D01*
X10536202Y4711724D01*
Y4741272D01*
X10530438Y4770251D01*
X10519130Y4797550D01*
X10502715Y4822117D01*
X10481822Y4843011D01*
X10475630Y4847148D01*
Y4859848D01*
X10481822Y4863985D01*
X10502715Y4884879D01*
X10519130Y4909446D01*
X10530438Y4936745D01*
X10536202Y4965724D01*
Y4995272D01*
X10530438Y5024251D01*
X10519130Y5051550D01*
X10502715Y5076117D01*
X10481822Y5097011D01*
X10475630Y5101148D01*
Y5113848D01*
X10481822Y5117985D01*
X10502715Y5138879D01*
X10519130Y5163446D01*
X10530438Y5190745D01*
X10536202Y5219724D01*
Y5249272D01*
X10530438Y5278251D01*
X10519130Y5305550D01*
X10502715Y5330117D01*
X10481822Y5351011D01*
X10475630Y5355148D01*
Y5367848D01*
X10481822Y5371985D01*
X10502715Y5392879D01*
X10519130Y5417446D01*
X10530438Y5444745D01*
X10536202Y5473724D01*
Y5503272D01*
X10530438Y5532251D01*
X10519130Y5559550D01*
X10502715Y5584117D01*
X10481822Y5605011D01*
X10475630Y5609148D01*
Y5621848D01*
X10481822Y5625985D01*
X10502715Y5646879D01*
X10519130Y5671446D01*
X10530438Y5698745D01*
X10536202Y5727724D01*
Y5757272D01*
X10530438Y5786251D01*
X10519130Y5813550D01*
X10502715Y5838117D01*
X10481822Y5859011D01*
X10478398Y5861298D01*
Y5873998D01*
X10484219Y5877887D01*
X10505113Y5898781D01*
X10521528Y5923348D01*
X10532835Y5950647D01*
X10538600Y5979626D01*
Y6009174D01*
X10532835Y6038153D01*
X10521528Y6065452D01*
X10505113Y6090019D01*
X10484219Y6110913D01*
X10475258Y6116900D01*
Y6129600D01*
X10481822Y6133985D01*
X10502715Y6154879D01*
X10519130Y6179446D01*
X10530438Y6206745D01*
X10536202Y6235724D01*
Y6265272D01*
X10530438Y6294251D01*
X10519130Y6321550D01*
X10502715Y6346117D01*
X10483113Y6365720D01*
X10483883Y6371076D01*
X10487606Y6378420D01*
X10562879D01*
X10972549Y5968749D01*
X10998661Y5948713D01*
X11029068Y5936117D01*
X11061700Y5931822D01*
X11215975D01*
X11223562Y5927441D01*
X11259169Y5917900D01*
X11296031D01*
X11331638Y5927441D01*
X11363562Y5945872D01*
X11389628Y5971938D01*
X11408059Y6003862D01*
X11417600Y6039469D01*
Y6076331D01*
X11408059Y6111938D01*
X11389628Y6143862D01*
X11363562Y6169928D01*
X11331638Y6188359D01*
X11296031Y6197900D01*
X11259169D01*
X11223562Y6188359D01*
X11215975Y6183978D01*
X11113923D01*
X10704253Y6593649D01*
X10678141Y6613685D01*
X10663574Y6619720D01*
X10666100Y6632420D01*
X10804179D01*
X10960395Y6476203D01*
X10986507Y6456167D01*
X11016914Y6443572D01*
X11049546Y6439276D01*
X11173810D01*
X11181747Y6440321D01*
X11262600D01*
X11270794Y6441399D01*
X11417600D01*
Y6721399D01*
X11137600D01*
Y6691433D01*
X11101769D01*
X10945553Y6847649D01*
X10919441Y6867685D01*
X10904874Y6873720D01*
X10907400Y6886420D01*
X11136162D01*
X11149768Y6872813D01*
X11165572Y6845439D01*
X11191638Y6819373D01*
X11223562Y6800942D01*
X11259169Y6791401D01*
X11296031D01*
X11331638Y6800942D01*
X11363562Y6819373D01*
X11389628Y6845439D01*
X11408059Y6877363D01*
X11417600Y6912970D01*
Y6949832D01*
X11408059Y6985439D01*
X11389628Y7017363D01*
X11363562Y7043429D01*
X11331638Y7061860D01*
X11312086Y7067099D01*
X11277536Y7101649D01*
X11251424Y7121685D01*
X11221017Y7134281D01*
X11188385Y7138577D01*
X11114796D01*
X11112270Y7151277D01*
X11126837Y7157311D01*
X11152949Y7177347D01*
X11315902Y7340300D01*
X11417600D01*
Y7620300D01*
X11137600D01*
Y7518602D01*
X11011575Y7392577D01*
X10873496D01*
X10870970Y7405277D01*
X10885537Y7411311D01*
X10911649Y7431347D01*
X11184436Y7704134D01*
X11216130D01*
X11223562Y7699843D01*
X11259169Y7690302D01*
X11296031D01*
X11331638Y7699843D01*
X11363562Y7718274D01*
X11389628Y7744340D01*
X11408059Y7776264D01*
X11417600Y7811871D01*
Y7848733D01*
X11408059Y7884340D01*
X11389628Y7916264D01*
X11363562Y7942330D01*
X11331638Y7960761D01*
X11296031Y7970302D01*
X11259169D01*
X11223562Y7960761D01*
X11215820Y7956291D01*
X11132212D01*
X11099581Y7951995D01*
X11069173Y7939400D01*
X11043061Y7919363D01*
X10770275Y7646577D01*
X10743697D01*
X10741171Y7659277D01*
X10755738Y7665311D01*
X10781850Y7685347D01*
X11315902Y8219399D01*
X11417600D01*
Y8499399D01*
X11137600D01*
Y8397701D01*
X10640476Y7900577D01*
X10467505D01*
X10457254Y7907426D01*
X10429956Y7918733D01*
X10400976Y7924498D01*
X10371429D01*
X10342449Y7918733D01*
X10315151Y7907426D01*
X10290583Y7891011D01*
X10269690Y7870117D01*
X10253274Y7845550D01*
X10241967Y7818251D01*
X10236202Y7789272D01*
Y7759724D01*
X10241967Y7730745D01*
X10253274Y7703446D01*
X10269690Y7678879D01*
X10290583Y7657985D01*
X10296775Y7653848D01*
Y7641148D01*
X10290583Y7637011D01*
X10269690Y7616117D01*
X10253274Y7591550D01*
X10241967Y7564251D01*
X10236202Y7535272D01*
Y7505724D01*
X10241967Y7476745D01*
X10253274Y7449446D01*
X10269690Y7424879D01*
X10290583Y7403985D01*
X10296775Y7399848D01*
Y7387148D01*
X10290583Y7383011D01*
X10269690Y7362117D01*
X10253274Y7337550D01*
X10241967Y7310251D01*
X10236202Y7281272D01*
Y7251724D01*
X10241967Y7222745D01*
X10253274Y7195446D01*
X10269690Y7170879D01*
X10290583Y7149985D01*
X10296775Y7145848D01*
Y7133148D01*
X10290583Y7129011D01*
X10269690Y7108117D01*
X10253274Y7083550D01*
X10241967Y7056251D01*
X10236202Y7027272D01*
Y6997724D01*
X10241967Y6968745D01*
X10253274Y6941446D01*
X10269690Y6916879D01*
X10290583Y6895985D01*
X10296775Y6891848D01*
Y6879148D01*
X10290583Y6875011D01*
X10269690Y6854117D01*
X10253274Y6829550D01*
X10241967Y6802251D01*
X10236202Y6773272D01*
Y6743724D01*
X10241967Y6714745D01*
X10253274Y6687446D01*
X10269690Y6662879D01*
X10290583Y6641985D01*
X10296775Y6637848D01*
Y6625148D01*
X10290583Y6621011D01*
X10269690Y6600117D01*
X10253274Y6575550D01*
X10241967Y6548251D01*
X10236202Y6519272D01*
Y6497207D01*
X10223502Y6491947D01*
X10146378Y6569070D01*
X10146378Y9334500D01*
Y9524996D01*
X10146378Y9525000D01*
X10142083Y9557632D01*
X10132800Y9580042D01*
Y9637500D01*
X10075342D01*
X10052932Y9646783D01*
X10020300Y9651078D01*
D02*
G37*
G36*
X6949244Y8057300D02*
X6914356D01*
X6880657Y8048270D01*
X6850443Y8030826D01*
X6825774Y8006157D01*
X6808330Y7975943D01*
X6799300Y7942244D01*
Y7907356D01*
X6808330Y7873657D01*
X6825774Y7843443D01*
X6850443Y7818774D01*
X6874071Y7805132D01*
Y7790468D01*
X6850443Y7776826D01*
X6825774Y7752157D01*
X6808330Y7721943D01*
X6799300Y7688244D01*
Y7653356D01*
X6808330Y7619657D01*
X6825774Y7589443D01*
X6850443Y7564774D01*
X6874071Y7551132D01*
Y7536468D01*
X6850443Y7522826D01*
X6825774Y7498157D01*
X6808330Y7467943D01*
X6799300Y7434244D01*
Y7399356D01*
X6808330Y7365657D01*
X6825774Y7335443D01*
X6850443Y7310774D01*
X6855997Y7307567D01*
X6852710Y7295300D01*
X6799300D01*
Y7030300D01*
X6989998D01*
X7058630Y6961668D01*
X7051436Y6950901D01*
X7043032Y6954383D01*
X7010400Y6958678D01*
X6973209D01*
X6949244Y6965100D01*
X6914356D01*
X6880657Y6956070D01*
X6850443Y6938626D01*
X6825774Y6913957D01*
X6808330Y6883743D01*
X6799300Y6850044D01*
Y6815156D01*
X6808330Y6781457D01*
X6825774Y6751243D01*
X6850443Y6726574D01*
X6874071Y6712932D01*
Y6698268D01*
X6850443Y6684626D01*
X6825774Y6659957D01*
X6808330Y6629743D01*
X6799300Y6596044D01*
Y6561156D01*
X6808330Y6527457D01*
X6825774Y6497243D01*
X6850443Y6472574D01*
X6855997Y6469367D01*
X6852710Y6457100D01*
X6799300D01*
Y6192100D01*
X7064300D01*
Y6198522D01*
X7466177D01*
X7503351Y6161347D01*
X7529463Y6141311D01*
X7540980Y6136540D01*
X7539264Y6123505D01*
X7529966Y6122281D01*
X7499559Y6109685D01*
X7473447Y6089649D01*
X7466177Y6082378D01*
X6973209D01*
X6949244Y6088800D01*
X6914356D01*
X6880657Y6079770D01*
X6850443Y6062326D01*
X6837588Y6049471D01*
X6832349Y6045451D01*
X6828329Y6040212D01*
X6825774Y6037657D01*
X6823967Y6034527D01*
X6812313Y6019339D01*
X6799717Y5988932D01*
X6795422Y5956300D01*
X6799717Y5923668D01*
X6812313Y5893261D01*
X6823967Y5878073D01*
X6825774Y5874943D01*
X6828329Y5872388D01*
X6832349Y5867149D01*
X6837588Y5863129D01*
X6850443Y5850274D01*
X6874071Y5836632D01*
Y5821968D01*
X6850443Y5808326D01*
X6837588Y5795471D01*
X6832349Y5791451D01*
X6828329Y5786212D01*
X6825774Y5783657D01*
X6823967Y5780527D01*
X6812313Y5765339D01*
X6799717Y5734932D01*
X6795422Y5702300D01*
X6799717Y5669668D01*
X6812313Y5639261D01*
X6823967Y5624073D01*
X6825774Y5620943D01*
X6828329Y5618388D01*
X6832349Y5613149D01*
X6837588Y5609129D01*
X6850443Y5596274D01*
X6855997Y5593067D01*
X6852710Y5580800D01*
X6799300D01*
Y5477762D01*
X6795422Y5448300D01*
X6799300Y5418838D01*
Y5315800D01*
X7049938D01*
X7055198Y5303100D01*
X6996277Y5244178D01*
X6973209D01*
X6949244Y5250600D01*
X6914356D01*
X6880657Y5241570D01*
X6850443Y5224126D01*
X6825774Y5199457D01*
X6808330Y5169243D01*
X6799300Y5135544D01*
Y5100656D01*
X6808330Y5066957D01*
X6825774Y5036743D01*
X6850443Y5012074D01*
X6855997Y5008867D01*
X6852710Y4996600D01*
X6799300D01*
Y4731600D01*
X7064300D01*
Y4738022D01*
X7148053D01*
X7180685Y4742317D01*
X7211093Y4754913D01*
X7237204Y4774949D01*
X7316675Y4854420D01*
X7744798D01*
X7748522Y4847076D01*
X7749292Y4841720D01*
X7729690Y4822117D01*
X7713274Y4797550D01*
X7701967Y4770251D01*
X7699561Y4758159D01*
X7614081Y4672678D01*
X6921500D01*
X6888868Y4668383D01*
X6858461Y4655787D01*
X6832349Y4635751D01*
X6812313Y4609639D01*
X6799717Y4579232D01*
X6795422Y4546600D01*
X6799300Y4517138D01*
Y4516456D01*
X6799477Y4515797D01*
X6799717Y4513968D01*
X6800423Y4512264D01*
X6808330Y4482757D01*
X6825774Y4452543D01*
X6850443Y4427874D01*
X6867667Y4417929D01*
X6866837Y4405257D01*
X6858461Y4401787D01*
X6832349Y4381751D01*
X6812313Y4355639D01*
X6799717Y4325232D01*
X6795422Y4292600D01*
X6799300Y4263138D01*
Y4262456D01*
X6799477Y4261797D01*
X6799717Y4259968D01*
X6800423Y4258264D01*
X6808330Y4228757D01*
X6825774Y4198543D01*
X6850443Y4173874D01*
X6855997Y4170667D01*
X6852710Y4158400D01*
X6799300D01*
Y4068062D01*
X6795422Y4038600D01*
X6799300Y4009138D01*
Y3893400D01*
X7064300D01*
Y3912522D01*
X7158304D01*
X7190936Y3916817D01*
X7221343Y3929413D01*
X7247455Y3949449D01*
X7501455Y4203449D01*
X7755455Y4457449D01*
X7877863Y4579857D01*
X7889956Y4582263D01*
X7917254Y4593570D01*
X7941822Y4609985D01*
X7962715Y4630879D01*
X7979130Y4655446D01*
X7990438Y4682745D01*
X7996202Y4711724D01*
Y4741272D01*
X7990438Y4770251D01*
X7979130Y4797550D01*
X7962715Y4822117D01*
X7941822Y4843011D01*
X7935630Y4847148D01*
Y4859848D01*
X7941822Y4863985D01*
X7962715Y4884879D01*
X7979130Y4909446D01*
X7990438Y4936745D01*
X7996202Y4965724D01*
Y4995272D01*
X7990438Y5024251D01*
X7979130Y5051550D01*
X7962715Y5076117D01*
X7941822Y5097011D01*
X7935630Y5101148D01*
Y5113848D01*
X7941822Y5117985D01*
X7962715Y5138879D01*
X7979130Y5163446D01*
X7990438Y5190745D01*
X7996202Y5219724D01*
Y5249272D01*
X7990438Y5278251D01*
X7979130Y5305550D01*
X7962715Y5330117D01*
X7941822Y5351011D01*
X7935630Y5355148D01*
Y5367848D01*
X7941822Y5371985D01*
X7962715Y5392879D01*
X7979130Y5417446D01*
X7990438Y5444745D01*
X7996202Y5473724D01*
Y5503272D01*
X7990438Y5532251D01*
X7979130Y5559550D01*
X7962715Y5584117D01*
X7941822Y5605011D01*
X7935630Y5609148D01*
Y5621848D01*
X7941822Y5625985D01*
X7962715Y5646879D01*
X7979130Y5671446D01*
X7990438Y5698745D01*
X7996202Y5727724D01*
Y5757272D01*
X7990438Y5786251D01*
X7979130Y5813550D01*
X7962715Y5838117D01*
X7941822Y5859011D01*
X7935630Y5863148D01*
Y5875848D01*
X7941822Y5879985D01*
X7962715Y5900879D01*
X7979130Y5925446D01*
X7990438Y5952745D01*
X7996202Y5981724D01*
Y6011272D01*
X7990438Y6040251D01*
X7979130Y6067550D01*
X7962715Y6092117D01*
X7941822Y6113011D01*
X7935630Y6117148D01*
Y6129848D01*
X7941822Y6133985D01*
X7962715Y6154879D01*
X7979130Y6179446D01*
X7990438Y6206745D01*
X7996202Y6235724D01*
Y6265272D01*
X7990438Y6294251D01*
X7979130Y6321550D01*
X7962715Y6346117D01*
X7941822Y6367011D01*
X7935630Y6371148D01*
Y6383848D01*
X7941822Y6387985D01*
X7962715Y6408879D01*
X7979130Y6433446D01*
X7990438Y6460745D01*
X7996202Y6489724D01*
Y6519272D01*
X7990438Y6548251D01*
X7979130Y6575550D01*
X7962715Y6600117D01*
X7941822Y6621011D01*
X7935630Y6625148D01*
Y6637848D01*
X7941822Y6641985D01*
X7962715Y6662879D01*
X7979130Y6687446D01*
X7990438Y6714745D01*
X7996202Y6743724D01*
Y6773272D01*
X7990438Y6802251D01*
X7979130Y6829550D01*
X7962715Y6854117D01*
X7941822Y6875011D01*
X7935630Y6879148D01*
Y6891848D01*
X7941822Y6895985D01*
X7962715Y6916879D01*
X7979130Y6941446D01*
X7990438Y6968745D01*
X7996202Y6997724D01*
Y7027272D01*
X7990438Y7056251D01*
X7979130Y7083550D01*
X7962715Y7108117D01*
X7941822Y7129011D01*
X7935630Y7133148D01*
Y7145848D01*
X7941822Y7149985D01*
X7962715Y7170879D01*
X7979130Y7195446D01*
X7990438Y7222745D01*
X7996202Y7251724D01*
Y7281272D01*
X7990438Y7310251D01*
X7979130Y7337550D01*
X7962715Y7362117D01*
X7941822Y7383011D01*
X7935630Y7387148D01*
Y7399848D01*
X7941822Y7403985D01*
X7962715Y7424879D01*
X7979130Y7449446D01*
X7990438Y7476745D01*
X7996202Y7505724D01*
Y7535272D01*
X7990438Y7564251D01*
X7979130Y7591550D01*
X7962715Y7616117D01*
X7941822Y7637011D01*
X7935630Y7641148D01*
Y7653848D01*
X7941822Y7657985D01*
X7962715Y7678879D01*
X7979130Y7703446D01*
X7990438Y7730745D01*
X7996202Y7759724D01*
Y7789272D01*
X7990438Y7818251D01*
X7979130Y7845550D01*
X7962715Y7870117D01*
X7941822Y7891011D01*
X7917254Y7907426D01*
X7889956Y7918733D01*
X7860976Y7924498D01*
X7831429D01*
X7802449Y7918733D01*
X7781711Y7910143D01*
X7704624D01*
X7600816Y8013951D01*
X7574705Y8033987D01*
X7544297Y8046583D01*
X7511665Y8050878D01*
X6973209D01*
X6949244Y8057300D01*
D02*
G37*
G36*
X11407602Y4879899D02*
X11127603D01*
Y4765405D01*
X10412577Y4050378D01*
X9643999D01*
X9611367Y4046083D01*
X9580960Y4033487D01*
X9554848Y4013451D01*
X9534812Y3987339D01*
X9522216Y3956932D01*
X9517921Y3924300D01*
X9522216Y3891668D01*
X9534812Y3861261D01*
X9554848Y3835149D01*
X9580960Y3815113D01*
X9611367Y3802517D01*
X9643999Y3798222D01*
X10464800D01*
X10497432Y3802517D01*
X10527839Y3815113D01*
X10553951Y3835149D01*
X11318701Y4599899D01*
X11407602D01*
Y4879899D01*
D02*
G37*
G36*
X11392200Y3968298D02*
X11112200D01*
Y3866600D01*
X10889578Y3643978D01*
X9643999D01*
X9611367Y3639683D01*
X9580960Y3627087D01*
X9554848Y3607051D01*
X9534812Y3580939D01*
X9522216Y3550532D01*
X9517921Y3517900D01*
X9522216Y3485268D01*
X9534812Y3454861D01*
X9554848Y3428749D01*
X9580960Y3408713D01*
X9611367Y3396117D01*
X9643999Y3391822D01*
X10941802D01*
X10974433Y3396117D01*
X11004841Y3408713D01*
X11030953Y3428749D01*
X11290502Y3688298D01*
X11392200D01*
Y3968298D01*
D02*
G37*
G36*
X11412583Y3410400D02*
X11371217D01*
X11330645Y3402329D01*
X11292428Y3386499D01*
X11258033Y3363518D01*
X11228782Y3334267D01*
X11205801Y3299872D01*
X11189971Y3261655D01*
X11181900Y3221083D01*
Y3179717D01*
X11189971Y3139145D01*
X11205801Y3100928D01*
X11228782Y3066533D01*
X11258033Y3037282D01*
X11292428Y3014301D01*
X11330645Y2998471D01*
X11371217Y2990400D01*
X11412583D01*
X11453155Y2998471D01*
X11491372Y3014301D01*
X11525767Y3037282D01*
X11555018Y3066533D01*
X11577999Y3100928D01*
X11593829Y3139145D01*
X11601900Y3179717D01*
Y3221083D01*
X11593829Y3261655D01*
X11577999Y3299872D01*
X11555018Y3334267D01*
X11525767Y3363518D01*
X11491372Y3386499D01*
X11453155Y3402329D01*
X11412583Y3410400D01*
D02*
G37*
G36*
X6192883D02*
X6151517D01*
X6110945Y3402329D01*
X6072728Y3386499D01*
X6038333Y3363518D01*
X6009082Y3334267D01*
X5986101Y3299872D01*
X5970271Y3261655D01*
X5962200Y3221083D01*
Y3179717D01*
X5970271Y3139145D01*
X5986101Y3100928D01*
X6009082Y3066533D01*
X6038333Y3037282D01*
X6072728Y3014301D01*
X6110945Y2998471D01*
X6151517Y2990400D01*
X6192883D01*
X6233455Y2998471D01*
X6271672Y3014301D01*
X6306067Y3037282D01*
X6335318Y3066533D01*
X6358299Y3100928D01*
X6374129Y3139145D01*
X6382200Y3179717D01*
Y3221083D01*
X6374129Y3261655D01*
X6358299Y3299872D01*
X6335318Y3334267D01*
X6306067Y3363518D01*
X6271672Y3386499D01*
X6233455Y3402329D01*
X6192883Y3410400D01*
D02*
G37*
%LPD*%
G36*
X7373710Y7177347D02*
X7399822Y7157311D01*
X7430229Y7144715D01*
X7462861Y7140420D01*
X7744798D01*
X7748522Y7133076D01*
X7749292Y7127720D01*
X7729690Y7108117D01*
X7713274Y7083550D01*
X7701967Y7056251D01*
X7696202Y7027272D01*
Y6997724D01*
X7701967Y6968745D01*
X7713274Y6941446D01*
X7729690Y6916879D01*
X7750583Y6895985D01*
X7756775Y6891848D01*
Y6879148D01*
X7750583Y6875011D01*
X7729690Y6854117D01*
X7713274Y6829550D01*
X7701967Y6802251D01*
X7696202Y6773272D01*
Y6743724D01*
X7701967Y6714745D01*
X7713274Y6687446D01*
X7725070Y6669792D01*
X7715205Y6661697D01*
X7124951Y7251951D01*
X7098839Y7271987D01*
X7084272Y7278022D01*
X7086798Y7290722D01*
X7260335D01*
X7373710Y7177347D01*
D02*
G37*
G36*
X7748522Y5609076D02*
X7749292Y5603720D01*
X7729690Y5584117D01*
X7713274Y5559550D01*
X7701967Y5532251D01*
X7696202Y5503272D01*
Y5473724D01*
X7701967Y5444745D01*
X7713274Y5417446D01*
X7729690Y5392879D01*
X7750583Y5371985D01*
X7756775Y5367848D01*
Y5355148D01*
X7750583Y5351011D01*
X7729690Y5330117D01*
X7713274Y5305550D01*
X7701967Y5278251D01*
X7696202Y5249272D01*
Y5219724D01*
X7701967Y5190745D01*
X7713274Y5163446D01*
X7729690Y5138879D01*
X7749292Y5119277D01*
X7748522Y5113920D01*
X7744798Y5106577D01*
X7264451D01*
X7231820Y5102281D01*
X7226909Y5100247D01*
X7219715Y5111013D01*
X7725121Y5616420D01*
X7744798D01*
X7748522Y5609076D01*
D02*
G37*
D10*
X6172200Y3200400D02*
D03*
X11391900D02*
D03*
X6172200Y11366500D02*
D03*
X11391900D02*
D03*
D11*
X6194897Y10340599D02*
D03*
X11356501Y10563600D02*
D03*
X11252200Y4178300D02*
D03*
X11267603Y5089901D02*
D03*
X11277600Y7830302D02*
D03*
Y8709401D02*
D03*
Y6931401D02*
D03*
Y6057900D02*
D03*
D12*
X6194897Y10690601D02*
D03*
X11356501Y10213598D02*
D03*
X11252200Y3828298D02*
D03*
X11267603Y4739899D02*
D03*
X11277600Y7480300D02*
D03*
Y8359399D02*
D03*
Y6581399D02*
D03*
Y5707898D02*
D03*
D13*
X10020300Y9525000D02*
D03*
X8644001Y3517900D02*
D03*
Y3924300D02*
D03*
D14*
X9020300Y9525000D02*
D03*
X9643999Y3517900D02*
D03*
Y3924300D02*
D03*
D15*
X8166501Y9902901D02*
D03*
D16*
X8366501Y10502900D02*
D03*
D17*
X8166501Y11102899D02*
D03*
X6946499D02*
D03*
Y9902901D02*
D03*
D18*
X10388600Y5994400D02*
D03*
D19*
X10386202Y5742498D02*
D03*
X7846202Y8028498D02*
D03*
Y7774498D02*
D03*
Y7520498D02*
D03*
Y7266498D02*
D03*
Y7012498D02*
D03*
Y6758498D02*
D03*
Y6504498D02*
D03*
Y6250498D02*
D03*
Y5996498D02*
D03*
Y5742498D02*
D03*
Y5488498D02*
D03*
Y5234498D02*
D03*
Y4980498D02*
D03*
Y4726498D02*
D03*
X10386202Y8282498D02*
D03*
Y8028498D02*
D03*
Y7774498D02*
D03*
Y7520498D02*
D03*
Y7266498D02*
D03*
Y7012498D02*
D03*
Y6758498D02*
D03*
Y6504498D02*
D03*
Y6250498D02*
D03*
Y5488498D02*
D03*
Y5234498D02*
D03*
Y4980498D02*
D03*
Y4726498D02*
D03*
D20*
X10680700Y10553700D02*
D03*
X9639300Y10312400D02*
D03*
D21*
X10680700Y10299700D02*
D03*
X9639300Y10058400D02*
D03*
D22*
X10096500Y10566400D02*
D03*
D23*
Y10312400D02*
D03*
Y10058400D02*
D03*
D24*
X6931800Y4864100D02*
D03*
X6934200Y8343900D02*
D03*
X6931800Y4025900D02*
D03*
Y6324600D02*
D03*
Y5448300D02*
D03*
Y7162800D02*
D03*
D25*
Y5118100D02*
D03*
X6934200Y8851900D02*
D03*
Y8597900D02*
D03*
X6931800Y4533900D02*
D03*
Y4279900D02*
D03*
Y6832600D02*
D03*
Y6578600D02*
D03*
Y5956300D02*
D03*
Y5702300D02*
D03*
Y7924800D02*
D03*
Y7670800D02*
D03*
Y7416800D02*
D03*
D26*
X7846202Y8282498D02*
D03*
D27*
X9004300Y10248900D02*
D03*
Y10508899D02*
D03*
D28*
Y9988901D02*
D03*
D29*
X6194897Y10340599D02*
X7197722D01*
X6534201Y10690601D02*
X6946499Y11102899D01*
X6194897Y10690601D02*
X6534201D01*
X7360023Y10502900D02*
X8366501D01*
X7197722Y10340599D02*
X7360023Y10502900D01*
X8166501Y11102899D02*
X9217101D01*
X9753600Y10566400D02*
X10096500D01*
X9217101Y11102899D02*
X9753600Y10566400D01*
X10096500D02*
X10668000D01*
X8166501Y9902901D02*
X8918301D01*
X9004300Y9988901D01*
X9022368Y10266968D02*
X9164032D01*
X9004300Y10248900D02*
X9022368Y10266968D01*
X9020300Y9525000D02*
X9048343Y9553043D01*
X9065723D01*
X9258300Y9745620D01*
Y10172700D01*
X9164032Y10266968D02*
X9258300Y10172700D01*
X9512300Y9931400D02*
X9639300Y10058400D01*
X8912762Y8849262D02*
X9512300Y9448800D01*
Y9931400D01*
X9639300Y10058400D02*
X10096500D01*
X10020299Y9524999D02*
X10020300Y9525000D01*
X10020299Y9334500D02*
Y9524999D01*
Y9334500D02*
X10020300Y6516847D01*
X10282649Y6254498D01*
X10382202D01*
X10386202Y6250498D01*
Y9593551D02*
Y9768698D01*
X10389300Y9353247D02*
Y9590453D01*
X10386202Y9350149D02*
X10389300Y9353247D01*
X10096500Y10058400D02*
X10386202Y9768698D01*
Y9593551D02*
X10389300Y9590453D01*
X10386202Y8282498D02*
Y9350149D01*
X8054438Y8849262D02*
X8912762D01*
X10690600Y10563600D02*
X11356501D01*
X7803076Y8597900D02*
X8054438Y8849262D01*
X6934200Y8851900D02*
X8051800D01*
X8054438Y8849262D01*
X6934200Y8597900D02*
X7803076D01*
X6921500Y5956300D02*
X7518400D01*
X7562598Y6000498D01*
X7842202D02*
X7846202Y5996498D01*
X7562598Y6000498D02*
X7842202D01*
Y7524498D02*
X7846202Y7520498D01*
X7558414Y7524498D02*
X7842202D01*
X7412112Y7670800D02*
X7558414Y7524498D01*
X6931800Y7670800D02*
X7412112D01*
X7836635Y7784065D02*
X7846202Y7774498D01*
X7652400Y7784065D02*
X7836635D01*
X7511665Y7924800D02*
X7652400Y7784065D01*
X6931800Y7924800D02*
X7511665D01*
X7462861Y7266498D02*
X7846202D01*
X7312559Y7416800D02*
X7462861Y7266498D01*
X6931800Y7416800D02*
X7312559D01*
X7836635Y6514065D02*
X7846202Y6504498D01*
X7684535Y6514065D02*
X7836635D01*
X7035800Y7162800D02*
X7684535Y6514065D01*
X6931800Y7162800D02*
X7035800D01*
X7010400Y6832600D02*
X7264400Y6578600D01*
X6931800Y6832600D02*
X7010400D01*
X6931800Y6324600D02*
X7518400D01*
X6931800Y6578600D02*
X7264400D01*
X7264451Y4980498D02*
X7846202D01*
X7148053Y4864100D02*
X7264451Y4980498D01*
X6931800Y4864100D02*
X7148053D01*
X7672898Y5742498D02*
X7846202D01*
X7048500Y5118100D02*
X7672898Y5742498D01*
X6931800Y5118100D02*
X7048500D01*
X7412304Y4292600D02*
X7666304Y4546600D01*
X7158304Y4038600D02*
X7412304Y4292600D01*
X6921500D02*
X7412304D01*
X7666304Y4546600D02*
X7846202Y4726498D01*
X6921500Y4546600D02*
X7666304D01*
X6921500Y4038600D02*
X7158304D01*
X7258050Y5695950D02*
X7518400Y5956300D01*
Y6324600D02*
X7592502Y6250498D01*
X7264400Y6578600D02*
X7518400Y6324600D01*
X7592502Y6250498D02*
X7846202D01*
X7010400Y5448300D02*
X7258050Y5695950D01*
X7251700Y5702300D02*
X7258050Y5695950D01*
X6921500Y5702300D02*
X7251700D01*
X6921500Y5448300D02*
X7010400D01*
X9643445Y5742498D02*
X10386202D01*
X8644001Y3924300D02*
Y4389501D01*
X9733431Y5478931D02*
X10376635D01*
X8644001Y4389501D02*
X9733431Y5478931D01*
X8394001Y3767900D02*
Y4493054D01*
X9643445Y5742498D01*
X8394001Y3767900D02*
X8644001Y3517900D01*
X10822498Y7520498D02*
X11132212Y7830212D01*
X11277511D02*
X11277600Y7830302D01*
X11132212Y7830212D02*
X11277511D01*
X11063798Y7266498D02*
X11277600Y7480300D01*
X11174855Y6566399D02*
X11262600D01*
X11188385Y7012498D02*
X11269482Y6931401D01*
X10692699Y7774498D02*
X11277600Y8359399D01*
X10615102Y6504498D02*
X11061700Y6057900D01*
X11277600D01*
X10386202Y7520498D02*
X10822498D01*
X10386202Y6758498D02*
X10856402D01*
X11049546Y6565354D01*
X11173810D01*
X11174855Y6566399D01*
X10386202Y7266498D02*
X11063798D01*
X10386202Y7774498D02*
X10692699D01*
X10399732Y7012498D02*
X11188385D01*
X10376635Y5478931D02*
X10386202Y5488498D01*
Y6504498D02*
X10615102D01*
X11269482Y6931401D02*
X11277600D01*
X11262600Y6566399D02*
X11277600Y6581399D01*
X10464800Y3924300D02*
X11252603Y4712103D01*
X10941802Y3517900D02*
X11252200Y3828298D01*
X9643999Y3517900D02*
X10941802D01*
X11252603Y4724899D02*
X11254806Y4727103D01*
X11252603Y4712103D02*
Y4724899D01*
X11254806Y4727103D02*
X11267603D01*
X9643999Y3924300D02*
X10464800D01*
%TF.MD5,132457a4f341bfb16f3294790e06cd3f*%
M02*
