%TF.GenerationSoftware,Altium Limited,Altium Designer,22.5.1 (42)*%
G04 Layer_Physical_Order=1*
G04 Layer_Color=255*
%FSLAX45Y45*%
%MOMM*%
%TF.SameCoordinates,0F5D3445-5268-4BF5-932C-448DE224A770*%
%TF.FilePolarity,Positive*%
%TF.FileFunction,Copper,L1,Top,Signal*%
%TF.Part,Single*%
G01*
G75*
%TA.AperFunction,WasherPad*%
%ADD10C,3.00000*%
%TA.AperFunction,ComponentPad*%
%ADD11C,1.80000*%
%ADD12R,1.80000X1.80000*%
%ADD13R,1.25000X1.25000*%
%ADD14C,1.25000*%
%ADD15R,1.98000X1.98000*%
%ADD16C,1.93500*%
%ADD17C,1.98000*%
%TA.AperFunction,ViaPad*%
%ADD18C,2.00000*%
%TA.AperFunction,ComponentPad*%
%ADD19C,2.00000*%
%ADD20R,1.20000X1.20000*%
%ADD21C,1.20000*%
%ADD22R,1.60000X1.60000*%
%ADD23C,1.60000*%
%ADD24R,1.65000X1.65000*%
%ADD25C,1.65000*%
%ADD26R,2.00000X2.00000*%
%ADD27C,1.40000*%
%ADD28R,1.40000X1.40000*%
D10*
X6172200Y3200400D02*
D03*
X11391900D02*
D03*
X6172200Y11366500D02*
D03*
X11391900D02*
D03*
D11*
X6194897Y10340599D02*
D03*
X11356501Y10563600D02*
D03*
X11252200Y4178300D02*
D03*
X11267603Y5089901D02*
D03*
X11277600Y7830302D02*
D03*
Y8709401D02*
D03*
Y6931401D02*
D03*
Y6057900D02*
D03*
D12*
X6194897Y10690601D02*
D03*
X11356501Y10213598D02*
D03*
X11252200Y3828298D02*
D03*
X11267603Y4739899D02*
D03*
X11277600Y7480300D02*
D03*
Y8359399D02*
D03*
Y6581399D02*
D03*
Y5707898D02*
D03*
D13*
X10020300Y9525000D02*
D03*
X8644001Y3517900D02*
D03*
Y3924300D02*
D03*
D14*
X9020300Y9525000D02*
D03*
X9643999Y3517900D02*
D03*
Y3924300D02*
D03*
D15*
X8166501Y9902901D02*
D03*
D16*
X8366501Y10502900D02*
D03*
D17*
X8166501Y11102899D02*
D03*
X6946499D02*
D03*
Y9902901D02*
D03*
D18*
X10388600Y5994400D02*
D03*
D19*
X10386202Y5742498D02*
D03*
X7846202Y8028498D02*
D03*
Y7774498D02*
D03*
Y7520498D02*
D03*
Y7266498D02*
D03*
Y7012498D02*
D03*
Y6758498D02*
D03*
Y6504498D02*
D03*
Y6250498D02*
D03*
Y5996498D02*
D03*
Y5742498D02*
D03*
Y5488498D02*
D03*
Y5234498D02*
D03*
Y4980498D02*
D03*
Y4726498D02*
D03*
X10386202Y8282498D02*
D03*
Y8028498D02*
D03*
Y7774498D02*
D03*
Y7520498D02*
D03*
Y7266498D02*
D03*
Y7012498D02*
D03*
Y6758498D02*
D03*
Y6504498D02*
D03*
Y6250498D02*
D03*
Y5488498D02*
D03*
Y5234498D02*
D03*
Y4980498D02*
D03*
Y4726498D02*
D03*
D20*
X10680700Y10553700D02*
D03*
X9639300Y10312400D02*
D03*
D21*
X10680700Y10299700D02*
D03*
X9639300Y10058400D02*
D03*
D22*
X10096500Y10566400D02*
D03*
D23*
Y10312400D02*
D03*
Y10058400D02*
D03*
D24*
X6931800Y4864100D02*
D03*
X6934200Y8343900D02*
D03*
X6931800Y4025900D02*
D03*
Y6324600D02*
D03*
Y5448300D02*
D03*
Y7162800D02*
D03*
D25*
Y5118100D02*
D03*
X6934200Y8851900D02*
D03*
Y8597900D02*
D03*
X6931800Y4533900D02*
D03*
Y4279900D02*
D03*
Y6832600D02*
D03*
Y6578600D02*
D03*
Y5956300D02*
D03*
Y5702300D02*
D03*
Y7924800D02*
D03*
Y7670800D02*
D03*
Y7416800D02*
D03*
D26*
X7846202Y8282498D02*
D03*
D27*
X9004300Y10248900D02*
D03*
Y10508899D02*
D03*
D28*
Y9988901D02*
D03*
%TF.MD5,fc2008769917b42e48725de62c379b77*%
M02*
