%TF.GenerationSoftware,Altium Limited,Altium Designer,22.5.1 (42)*%
G04 Layer_Color=65535*
%FSLAX45Y45*%
%MOMM*%
%TF.SameCoordinates,0F5D3445-5268-4BF5-932C-448DE224A770*%
%TF.FilePolarity,Positive*%
%TF.FileFunction,Legend,Top*%
%TF.Part,Single*%
G01*
G75*
%TA.AperFunction,NonConductor*%
%ADD45C,0.30000*%
%ADD46C,0.25000*%
%ADD47C,0.20000*%
%ADD48C,0.12700*%
%ADD49C,0.25400*%
D45*
X8586500Y9891000D02*
G03*
X8586500Y9891000I-10000J0D01*
G01*
D46*
X10109000Y10887400D02*
G03*
X10109000Y10887400I-12500J0D01*
G01*
X9016800Y9863900D02*
G03*
X9016800Y9863900I-12500J0D01*
G01*
D47*
X7641200Y8282500D02*
G03*
X7641200Y8282500I-10000J0D01*
G01*
X8904873Y10461830D02*
G03*
X8894300Y10041234I99427J-212930D01*
G01*
X9137802Y10442299D02*
G03*
X9103690Y10461849I-133502J-193399D01*
G01*
X9114264Y10041214D02*
G03*
X9137802Y10055501I-109964J207686D01*
G01*
X6419997Y10115591D02*
X6424900Y10165598D01*
X6469903D02*
X6474805Y10115591D01*
X6419901Y10115601D02*
X6474902D01*
X6534902Y10165598D02*
Y10865602D01*
X5834898D02*
X5964900D01*
X5834898Y10165598D02*
Y10865602D01*
X6469903Y10165598D02*
X6534902D01*
X5834898D02*
X6424900D01*
X5957072Y10915599D02*
X6036899D01*
X5957072D02*
X5964900Y10865602D01*
X6029904D02*
X6534902D01*
X6029945Y10865470D02*
X6036899Y10915599D01*
X9180300Y9395000D02*
X9860300D01*
X9180300D02*
Y9655000D01*
X9860300D01*
Y9395000D02*
Y9655000D01*
Y9525000D02*
X9917800D01*
X9122800D02*
X9180300D01*
X11514499Y9988600D02*
X11521459Y10038729D01*
X11016501Y10038597D02*
X11521499D01*
X11586498D02*
X11594326Y9988600D01*
X11514499D02*
X11594326D01*
X11126499Y10738601D02*
X11716500D01*
X11016501D02*
X11081500D01*
X11716500Y10038597D02*
Y10738601D01*
X11586498Y10038597D02*
X11716500D01*
X11016501D02*
Y10738601D01*
X11076501Y10788598D02*
X11131497D01*
X11076593Y10788608D02*
X11081500Y10738601D01*
X11126499D02*
X11131401Y10788608D01*
X10839450Y10172700D02*
Y10680700D01*
X10521950Y10172700D02*
X10839450D01*
X10521950D02*
Y10680700D01*
X10839450D01*
X9892502Y10822402D02*
X10362499D01*
X9892502Y9802398D02*
X10362499D01*
X9892502D02*
Y10822402D01*
X10362499Y9802398D02*
Y10822402D01*
X10312502Y9802398D02*
Y10822402D01*
X9798050Y9931400D02*
Y10439400D01*
X9480550Y9931400D02*
X9798050D01*
X9480550D02*
Y10439400D01*
X9798050D01*
X6520300Y4722100D02*
X6789300D01*
X6520300D02*
Y5260100D01*
X6789300D01*
Y4722100D02*
Y5260100D01*
X5947800Y4896100D02*
X6520300D01*
X5947800Y4832100D02*
X6520300D01*
X5927800Y4864100D02*
X5947800Y4896100D01*
X5927800Y4864100D02*
X5947800Y4832100D01*
Y5150100D02*
X6520300D01*
X5947800Y5086100D02*
X6520300D01*
X5927800Y5118100D02*
X5947800Y5150100D01*
X5927800Y5118100D02*
X5947800Y5086100D01*
X5930200Y8851900D02*
X5950200Y8819900D01*
X5930200Y8851900D02*
X5950200Y8883900D01*
Y8819900D02*
X6522700D01*
X5950200Y8883900D02*
X6522700D01*
Y8201900D02*
X6791700D01*
X6522700D02*
Y8993900D01*
X6791700D01*
Y8201900D02*
Y8993900D01*
X5950200Y8375900D02*
X6522700D01*
X5950200Y8311900D02*
X6522700D01*
X5930200Y8343900D02*
X5950200Y8375900D01*
X5930200Y8343900D02*
X5950200Y8311900D01*
Y8629900D02*
X6522700D01*
X5950200Y8565900D02*
X6522700D01*
X5930200Y8597900D02*
X5950200Y8629900D01*
X5930200Y8597900D02*
X5950200Y8565900D01*
X5927800Y4533900D02*
X5947800Y4501900D01*
X5927800Y4533900D02*
X5947800Y4565900D01*
Y4501900D02*
X6520300D01*
X5947800Y4565900D02*
X6520300D01*
Y3883900D02*
X6789300D01*
X6520300D02*
Y4675900D01*
X6789300D01*
Y3883900D02*
Y4675900D01*
X5947800Y4057900D02*
X6520300D01*
X5947800Y3993900D02*
X6520300D01*
X5927800Y4025900D02*
X5947800Y4057900D01*
X5927800Y4025900D02*
X5947800Y3993900D01*
Y4311900D02*
X6520300D01*
X5947800Y4247900D02*
X6520300D01*
X5927800Y4279900D02*
X5947800Y4311900D01*
X5927800Y4279900D02*
X5947800Y4247900D01*
X5927800Y6832600D02*
X5947800Y6800600D01*
X5927800Y6832600D02*
X5947800Y6864600D01*
Y6800600D02*
X6520300D01*
X5947800Y6864600D02*
X6520300D01*
Y6182600D02*
X6789300D01*
X6520300D02*
Y6974600D01*
X6789300D01*
Y6182600D02*
Y6974600D01*
X5947800Y6356600D02*
X6520300D01*
X5947800Y6292600D02*
X6520300D01*
X5927800Y6324600D02*
X5947800Y6356600D01*
X5927800Y6324600D02*
X5947800Y6292600D01*
Y6610600D02*
X6520300D01*
X5947800Y6546600D02*
X6520300D01*
X5927800Y6578600D02*
X5947800Y6610600D01*
X5927800Y6578600D02*
X5947800Y6546600D01*
X5927800Y5956300D02*
X5947800Y5924300D01*
X5927800Y5956300D02*
X5947800Y5988300D01*
Y5924300D02*
X6520300D01*
X5947800Y5988300D02*
X6520300D01*
Y5306300D02*
X6789300D01*
X6520300D02*
Y6098300D01*
X6789300D01*
Y5306300D02*
Y6098300D01*
X5947800Y5480300D02*
X6520300D01*
X5947800Y5416300D02*
X6520300D01*
X5927800Y5448300D02*
X5947800Y5480300D01*
X5927800Y5448300D02*
X5947800Y5416300D01*
Y5734300D02*
X6520300D01*
X5947800Y5670300D02*
X6520300D01*
X5927800Y5702300D02*
X5947800Y5734300D01*
X5927800Y5702300D02*
X5947800Y5670300D01*
X5927800Y7924800D02*
X5947800Y7892800D01*
X5927800Y7924800D02*
X5947800Y7956800D01*
Y7892800D02*
X6520300D01*
X5947800Y7956800D02*
X6520300D01*
X5927800Y7416800D02*
X5947800Y7384800D01*
X5927800Y7416800D02*
X5947800Y7448800D01*
Y7384800D02*
X6520300D01*
X5947800Y7448800D02*
X6520300D01*
X5927800Y7162800D02*
X5947800Y7130800D01*
X5927800Y7162800D02*
X5947800Y7194800D01*
Y7130800D02*
X6520300D01*
X5947800Y7194800D02*
X6520300D01*
X6789300Y7020800D02*
Y8066800D01*
X6520300D02*
X6789300D01*
X6520300Y7020800D02*
Y8066800D01*
Y7020800D02*
X6789300D01*
X5947800Y7702800D02*
X6520300D01*
X5947800Y7638800D02*
X6520300D01*
X5927800Y7670800D02*
X5947800Y7702800D01*
X5927800Y7670800D02*
X5947800Y7638800D01*
X9137802Y10055499D02*
Y10442301D01*
X11410198Y3603300D02*
X11417158Y3653429D01*
X10912201Y3653297D02*
X11417198D01*
X11482197D02*
X11490025Y3603300D01*
X11410198D02*
X11490025D01*
X11022198Y4353296D02*
X11612199D01*
X10912201D02*
X10977199D01*
X11612199Y3653297D02*
Y4353296D01*
X11482197Y3653297D02*
X11612199D01*
X10912201D02*
Y4353296D01*
X10972201Y4403298D02*
X11027197D01*
X10972292Y4403308D02*
X10977199Y4353296D01*
X11022198D02*
X11027100Y4403308D01*
X11425601Y4514901D02*
X11432555Y4565030D01*
X10927598Y4564898D02*
X11432596D01*
X11497600D02*
X11505428Y4514901D01*
X11425601D02*
X11505428D01*
X11037600Y5264902D02*
X11627602D01*
X10927598D02*
X10992597D01*
X11627602Y4564898D02*
Y5264902D01*
X11497600Y4564898D02*
X11627602D01*
X10927598D02*
Y5264902D01*
X10987598Y5314899D02*
X11042599D01*
X10987695Y5314909D02*
X10992597Y5264902D01*
X11037600D02*
X11042503Y5314909D01*
X11435598Y7255302D02*
X11442558Y7305431D01*
X10937601Y7305299D02*
X11442598D01*
X11507597D02*
X11515425Y7255302D01*
X11435598D02*
X11515425D01*
X11047598Y8005298D02*
X11637599D01*
X10937601D02*
X11002599D01*
X11637599Y7305299D02*
Y8005298D01*
X11507597Y7305299D02*
X11637599D01*
X10937601D02*
Y8005298D01*
X10997601Y8055300D02*
X11052597D01*
X10997692Y8055310D02*
X11002599Y8005298D01*
X11047598D02*
X11052500Y8055310D01*
X11435598Y8134401D02*
X11442558Y8184530D01*
X10937601Y8184398D02*
X11442598D01*
X11507597D02*
X11515425Y8134401D01*
X11435598D02*
X11515425D01*
X11047598Y8884402D02*
X11637599D01*
X10937601D02*
X11002599D01*
X11637599Y8184398D02*
Y8884402D01*
X11507597Y8184398D02*
X11637599D01*
X10937601D02*
Y8884402D01*
X10997601Y8934399D02*
X11052597D01*
X10997692Y8934409D02*
X11002599Y8884402D01*
X11047598D02*
X11052500Y8934409D01*
X11435598Y6356401D02*
X11442558Y6406530D01*
X10937601Y6406398D02*
X11442598D01*
X11507597D02*
X11515425Y6356401D01*
X11435598D02*
X11515425D01*
X11047598Y7106402D02*
X11637599D01*
X10937601D02*
X11002599D01*
X11637599Y6406398D02*
Y7106402D01*
X11507597Y6406398D02*
X11637599D01*
X10937601D02*
Y7106402D01*
X10997601Y7156399D02*
X11052597D01*
X10997692Y7156409D02*
X11002599Y7106402D01*
X11047598D02*
X11052500Y7156409D01*
X11435598Y5482900D02*
X11442558Y5533029D01*
X10937601Y5532897D02*
X11442598D01*
X11507597D02*
X11515425Y5482900D01*
X11435598D02*
X11515425D01*
X11047598Y6232901D02*
X11637599D01*
X10937601D02*
X11002599D01*
X11637599Y5532897D02*
Y6232901D01*
X11507597Y5532897D02*
X11637599D01*
X10937601D02*
Y6232901D01*
X10997601Y6282898D02*
X11052597D01*
X10997692Y6282908D02*
X11002599Y6232901D01*
X11047598D02*
X11052500Y6282908D01*
X9483999Y3517900D02*
X9541500D01*
X8746500D02*
X8804001D01*
Y3387898D02*
Y3647902D01*
Y3387898D02*
X9483999D01*
Y3647902D01*
X8804001D02*
X9483999D01*
Y3924300D02*
X9541500D01*
X8746500D02*
X8804001D01*
Y3794298D02*
Y4054302D01*
Y3794298D02*
X9483999D01*
Y4054302D01*
X8804001D02*
X9483999D01*
D48*
X8511499Y9727900D02*
Y11277900D01*
X6601501Y9727900D02*
X8511499D01*
X6601501D02*
Y11277900D01*
X8511499D01*
X10539202Y4183502D02*
Y9278498D01*
X7688199Y4183502D02*
X10539202D01*
X7688199Y9278498D02*
X10539202D01*
X7688199Y4183502D02*
Y9278498D01*
X8795101D01*
X9466199D01*
X10539202D01*
X7688199Y4183502D02*
Y9278498D01*
X10539202Y4183502D02*
Y9278498D01*
X7688199Y4183502D02*
X8225201D01*
X9994199D01*
X10539202D01*
D49*
X7141070Y8990330D02*
X7293421D01*
Y8914155D01*
X7268029Y8888763D01*
X7217245D01*
X7191854Y8914155D01*
Y8990330D01*
X7115678Y8837979D02*
Y8736412D01*
X7141070Y8685629D02*
X7293421D01*
Y8609453D01*
X7268029Y8584061D01*
X7217245D01*
X7191854Y8609453D01*
Y8685629D01*
X7293421Y8457102D02*
Y8507886D01*
X7268029Y8533278D01*
X7166462D01*
X7141070Y8507886D01*
Y8457102D01*
X7166462Y8431711D01*
X7268029D01*
X7293421Y8457102D01*
Y8380927D02*
X7141070D01*
X7191854Y8330144D01*
X7141070Y8279360D01*
X7293421D01*
X7138670Y4672330D02*
X7291021D01*
Y4596155D01*
X7265629Y4570763D01*
X7214845D01*
X7189453Y4596155D01*
Y4672330D01*
X7113278Y4519979D02*
Y4418412D01*
X7138670Y4367629D02*
X7291021D01*
X7240237Y4316845D01*
X7291021Y4266061D01*
X7138670D01*
X7291021Y4139102D02*
Y4189886D01*
X7265629Y4215278D01*
X7164062D01*
X7138670Y4189886D01*
Y4139102D01*
X7164062Y4113711D01*
X7265629D01*
X7291021Y4139102D01*
X7265629Y3961360D02*
X7291021Y3986752D01*
Y4037535D01*
X7265629Y4062927D01*
X7240237D01*
X7214845Y4037535D01*
Y3986752D01*
X7189453Y3961360D01*
X7164062D01*
X7138670Y3986752D01*
Y4037535D01*
X7164062Y4062927D01*
X7291021Y3910576D02*
Y3859793D01*
Y3885185D01*
X7138670D01*
Y3910576D01*
Y3859793D01*
Y6094730D02*
X7291021D01*
Y6018555D01*
X7265629Y5993163D01*
X7214845D01*
X7189453Y6018555D01*
Y6094730D01*
X7113278Y5942379D02*
Y5840812D01*
X7138670Y5790029D02*
X7291021D01*
X7240237Y5739245D01*
X7291021Y5688461D01*
X7138670D01*
X7291021Y5637678D02*
Y5586894D01*
Y5612286D01*
X7138670D01*
Y5637678D01*
Y5586894D01*
X7265629Y5409152D02*
X7291021Y5434544D01*
Y5485327D01*
X7265629Y5510719D01*
X7240237D01*
X7214845Y5485327D01*
Y5434544D01*
X7189453Y5409152D01*
X7164062D01*
X7138670Y5434544D01*
Y5485327D01*
X7164062Y5510719D01*
X7291021Y5282193D02*
Y5332976D01*
X7265629Y5358368D01*
X7164062D01*
X7138670Y5332976D01*
Y5282193D01*
X7164062Y5256801D01*
X7265629D01*
X7291021Y5282193D01*
X7138670Y6971030D02*
X7291021D01*
Y6894855D01*
X7265629Y6869463D01*
X7214845D01*
X7189453Y6894855D01*
Y6971030D01*
X7113278Y6818679D02*
Y6717112D01*
X7265629Y6564761D02*
X7291021Y6590153D01*
Y6640937D01*
X7265629Y6666329D01*
X7164062D01*
X7138670Y6640937D01*
Y6590153D01*
X7164062Y6564761D01*
X7291021Y6513978D02*
X7138670D01*
Y6412411D01*
X7291021Y6361627D02*
X7138670D01*
X7189453D01*
X7291021Y6260060D01*
X7214845Y6336235D01*
X7138670Y6260060D01*
Y8063230D02*
X7291021D01*
Y7987055D01*
X7265629Y7961663D01*
X7214845D01*
X7189453Y7987055D01*
Y8063230D01*
X7113278Y7910879D02*
Y7809312D01*
X7138670Y7656961D02*
Y7758529D01*
X7240237Y7656961D01*
X7265629D01*
X7291021Y7682353D01*
Y7733137D01*
X7265629Y7758529D01*
X7138670Y5256530D02*
X7291021D01*
Y5180355D01*
X7265629Y5154963D01*
X7214845D01*
X7189453Y5180355D01*
Y5256530D01*
X7113278Y5104179D02*
Y5002612D01*
X7138670Y4951829D02*
Y4901045D01*
Y4926437D01*
X7291021D01*
X7265629Y4951829D01*
X8861170Y9399270D02*
X8708819D01*
Y9475445D01*
X8734211Y9500837D01*
X8784995D01*
X8810386Y9475445D01*
Y9399270D01*
Y9450053D02*
X8861170Y9500837D01*
X8734211Y9551621D02*
X8708819Y9577013D01*
Y9627796D01*
X8734211Y9653188D01*
X8759603D01*
X8784995Y9627796D01*
Y9602404D01*
Y9627796D01*
X8810386Y9653188D01*
X8835778D01*
X8861170Y9627796D01*
Y9577013D01*
X8835778Y9551621D01*
X10021529Y10331483D02*
X10046921Y10356875D01*
Y10407658D01*
X10021529Y10433050D01*
X9919962D01*
X9894570Y10407658D01*
Y10356875D01*
X9919962Y10331483D01*
X9894570Y10179132D02*
Y10280699D01*
X9996137Y10179132D01*
X10021529D01*
X10046921Y10204524D01*
Y10255307D01*
X10021529Y10280699D01*
X11062929Y10572783D02*
X11088321Y10598175D01*
Y10648958D01*
X11062929Y10674350D01*
X10961362D01*
X10935970Y10648958D01*
Y10598175D01*
X10961362Y10572783D01*
X10935970Y10521999D02*
Y10471216D01*
Y10496607D01*
X11088321D01*
X11062929Y10521999D01*
X9803130Y3643630D02*
X9955481D01*
Y3567455D01*
X9930089Y3542063D01*
X9879305D01*
X9853913Y3567455D01*
Y3643630D01*
Y3592847D02*
X9803130Y3542063D01*
Y3389712D02*
Y3491279D01*
X9904697Y3389712D01*
X9930089D01*
X9955481Y3415104D01*
Y3465887D01*
X9930089Y3491279D01*
X9803130Y4050030D02*
X9955481D01*
Y3973855D01*
X9930089Y3948463D01*
X9879305D01*
X9853913Y3973855D01*
Y4050030D01*
Y3999247D02*
X9803130Y3948463D01*
Y3897679D02*
Y3846896D01*
Y3872287D01*
X9955481D01*
X9930089Y3897679D01*
X10661538Y5586956D02*
Y5536172D01*
Y5561564D01*
X10788497D01*
X10813889Y5536172D01*
Y5510781D01*
X10788497Y5485389D01*
X10661538Y5739307D02*
X10686930Y5688523D01*
X10737714Y5637740D01*
X10788497D01*
X10813889Y5663131D01*
Y5713915D01*
X10788497Y5739307D01*
X10763105D01*
X10737714Y5713915D01*
Y5637740D01*
X10839281Y5790090D02*
Y5891658D01*
X10813889Y6044008D02*
Y5942441D01*
X10712322Y6044008D01*
X10686930D01*
X10661538Y6018616D01*
Y5967833D01*
X10686930Y5942441D01*
X10661538Y6460457D02*
Y6409673D01*
Y6435065D01*
X10788497D01*
X10813889Y6409673D01*
Y6384282D01*
X10788497Y6358890D01*
X10661538Y6612808D02*
X10686930Y6562024D01*
X10737714Y6511241D01*
X10788497D01*
X10813889Y6536633D01*
Y6587416D01*
X10788497Y6612808D01*
X10763106D01*
X10737714Y6587416D01*
Y6511241D01*
X10839281Y6663591D02*
Y6765159D01*
X10813889Y6815942D02*
Y6866726D01*
Y6841334D01*
X10661538D01*
X10686930Y6815942D01*
X10661538Y7359357D02*
Y7308573D01*
Y7333965D01*
X10788497D01*
X10813889Y7308573D01*
Y7283182D01*
X10788497Y7257790D01*
X10661538Y7511708D02*
Y7410141D01*
X10737714D01*
X10712322Y7460924D01*
Y7486316D01*
X10737714Y7511708D01*
X10788497D01*
X10813889Y7486316D01*
Y7435532D01*
X10788497Y7410141D01*
X10839281Y7562491D02*
Y7664059D01*
X10813889Y7816409D02*
Y7714842D01*
X10712322Y7816409D01*
X10686930D01*
X10661538Y7791017D01*
Y7740234D01*
X10686930Y7714842D01*
X10661538Y8238457D02*
Y8187673D01*
Y8213065D01*
X10788497D01*
X10813889Y8187673D01*
Y8162282D01*
X10788497Y8136890D01*
X10661538Y8390808D02*
Y8289241D01*
X10737714D01*
X10712322Y8340024D01*
Y8365416D01*
X10737714Y8390808D01*
X10788497D01*
X10813889Y8365416D01*
Y8314633D01*
X10788497Y8289241D01*
X10839281Y8441591D02*
Y8543159D01*
X10813889Y8593942D02*
Y8644726D01*
Y8619334D01*
X10661538D01*
X10686930Y8593942D01*
X10676939Y4618957D02*
Y4568173D01*
Y4593565D01*
X10803898D01*
X10829290Y4568173D01*
Y4542782D01*
X10803898Y4517390D01*
X10829290Y4745916D02*
X10676939D01*
X10753115Y4669741D01*
Y4771308D01*
X10661538Y3707355D02*
Y3656572D01*
Y3681963D01*
X10788497D01*
X10813889Y3656572D01*
Y3631180D01*
X10788497Y3605788D01*
X10686930Y3758139D02*
X10661538Y3783531D01*
Y3834314D01*
X10686930Y3859706D01*
X10712322D01*
X10737714Y3834314D01*
Y3808922D01*
Y3834314D01*
X10763106Y3859706D01*
X10788497D01*
X10813889Y3834314D01*
Y3783531D01*
X10788497Y3758139D01*
X6785561Y10811543D02*
Y10862327D01*
Y10836935D01*
X6658602D01*
X6633210Y10862327D01*
Y10887718D01*
X6658602Y10913110D01*
X6633210Y10659192D02*
Y10760759D01*
X6734777Y10659192D01*
X6760169D01*
X6785561Y10684584D01*
Y10735367D01*
X6760169Y10760759D01*
X10765839Y10092657D02*
Y10041873D01*
Y10067265D01*
X10892798D01*
X10918190Y10041873D01*
Y10016482D01*
X10892798Y9991090D01*
X10918190Y10143441D02*
Y10194224D01*
Y10168833D01*
X10765839D01*
X10791231Y10143441D01*
X9889490Y11141661D02*
Y11014702D01*
X9914882Y10989310D01*
X9965665D01*
X9991057Y11014702D01*
Y11141661D01*
X10143408Y10989310D02*
X10041841D01*
X10143408Y11090877D01*
Y11116269D01*
X10118016Y11141661D01*
X10067233D01*
X10041841Y11116269D01*
X7636650Y9533841D02*
Y9406882D01*
X7662042Y9381490D01*
X7712825D01*
X7738217Y9406882D01*
Y9533841D01*
X7789001Y9381490D02*
X7839784D01*
X7814393D01*
Y9533841D01*
X7789001Y9508449D01*
X8883617Y10692122D02*
Y10793689D01*
X8858225Y10819081D01*
X8807442D01*
X8782050Y10793689D01*
Y10692122D01*
X8807442Y10666730D01*
X8858225D01*
X8832833Y10717513D02*
X8883617Y10666730D01*
X8858225D02*
X8883617Y10692122D01*
X8934401Y10793689D02*
X8959793Y10819081D01*
X9010576D01*
X9035968Y10793689D01*
Y10768297D01*
X8985184Y10717513D01*
Y10692122D02*
Y10666730D01*
X6351319Y9721850D02*
X6503670D01*
X6452887D01*
X6351319Y9823417D01*
X6427495Y9747242D01*
X6503670Y9823417D01*
X6376711Y9874201D02*
X6351319Y9899593D01*
Y9950376D01*
X6376711Y9975768D01*
X6402103D01*
X6452887Y9924984D01*
X6478278D02*
X6503670D01*
%TF.MD5,8486950527c6be3dbfcbeda8590bef10*%
M02*
