%TF.GenerationSoftware,Altium Limited,Altium Designer,22.5.1 (42)*%
G04 Layer_Color=16711935*
%FSLAX45Y45*%
%MOMM*%
%TF.SameCoordinates,0F5D3445-5268-4BF5-932C-448DE224A770*%
%TF.FilePolarity,Negative*%
%TF.FileFunction,Soldermask,Bot*%
%TF.Part,Single*%
G01*
G75*
%TA.AperFunction,ComponentPad*%
%ADD13R,1.25000X1.25000*%
%ADD14C,1.25000*%
%ADD20R,1.20000X1.20000*%
%ADD21C,1.20000*%
%TA.AperFunction,WasherPad*%
%ADD30C,3.20320*%
%TA.AperFunction,ComponentPad*%
%ADD31C,2.00320*%
%ADD32R,2.00320X2.00320*%
%ADD33R,2.18320X2.18320*%
%ADD34C,2.13820*%
%ADD35C,2.18320*%
%TA.AperFunction,ViaPad*%
%ADD36C,2.20320*%
%TA.AperFunction,ComponentPad*%
%ADD37C,2.20320*%
%ADD38R,1.80320X1.80320*%
%ADD39C,1.80320*%
%ADD40R,1.85320X1.85320*%
%ADD41C,1.85320*%
%ADD42R,2.20320X2.20320*%
%ADD43C,1.60320*%
%ADD44R,1.60320X1.60320*%
D13*
X10020300Y9525000D02*
D03*
X8644001Y3517900D02*
D03*
Y3924300D02*
D03*
D14*
X9020300Y9525000D02*
D03*
X9643999Y3517900D02*
D03*
Y3924300D02*
D03*
D20*
X10680700Y10553700D02*
D03*
X9639300Y10312400D02*
D03*
D21*
X10680700Y10299700D02*
D03*
X9639300Y10058400D02*
D03*
D30*
X6172200Y3200400D02*
D03*
X11391900D02*
D03*
X6172200Y11366500D02*
D03*
X11391900D02*
D03*
D31*
X6194897Y10340599D02*
D03*
X11356501Y10563600D02*
D03*
X11252200Y4178300D02*
D03*
X11267603Y5089901D02*
D03*
X11277600Y7830302D02*
D03*
Y8709401D02*
D03*
Y6931401D02*
D03*
Y6057900D02*
D03*
D32*
X6194897Y10690601D02*
D03*
X11356501Y10213598D02*
D03*
X11252200Y3828298D02*
D03*
X11267603Y4739899D02*
D03*
X11277600Y7480300D02*
D03*
Y8359399D02*
D03*
Y6581399D02*
D03*
Y5707898D02*
D03*
D33*
X8166501Y9902901D02*
D03*
D34*
X8366501Y10502900D02*
D03*
D35*
X8166501Y11102899D02*
D03*
X6946499D02*
D03*
Y9902901D02*
D03*
D36*
X10388600Y5994400D02*
D03*
D37*
X10386202Y5742498D02*
D03*
X7846202Y8028498D02*
D03*
Y7774498D02*
D03*
Y7520498D02*
D03*
Y7266498D02*
D03*
Y7012498D02*
D03*
Y6758498D02*
D03*
Y6504498D02*
D03*
Y6250498D02*
D03*
Y5996498D02*
D03*
Y5742498D02*
D03*
Y5488498D02*
D03*
Y5234498D02*
D03*
Y4980498D02*
D03*
Y4726498D02*
D03*
X10386202Y8282498D02*
D03*
Y8028498D02*
D03*
Y7774498D02*
D03*
Y7520498D02*
D03*
Y7266498D02*
D03*
Y7012498D02*
D03*
Y6758498D02*
D03*
Y6504498D02*
D03*
Y6250498D02*
D03*
Y5488498D02*
D03*
Y5234498D02*
D03*
Y4980498D02*
D03*
Y4726498D02*
D03*
D38*
X10096500Y10566400D02*
D03*
D39*
Y10312400D02*
D03*
Y10058400D02*
D03*
D40*
X6931800Y4864100D02*
D03*
X6934200Y8343900D02*
D03*
X6931800Y4025900D02*
D03*
Y6324600D02*
D03*
Y5448300D02*
D03*
Y7162800D02*
D03*
D41*
Y5118100D02*
D03*
X6934200Y8851900D02*
D03*
Y8597900D02*
D03*
X6931800Y4533900D02*
D03*
Y4279900D02*
D03*
Y6832600D02*
D03*
Y6578600D02*
D03*
Y5956300D02*
D03*
Y5702300D02*
D03*
Y7924800D02*
D03*
Y7670800D02*
D03*
Y7416800D02*
D03*
D42*
X7846202Y8282498D02*
D03*
D43*
X9004300Y10248900D02*
D03*
Y10508899D02*
D03*
D44*
Y9988901D02*
D03*
%TF.MD5,62bd599c3745b5ae79307e4242b6704a*%
M02*
